<?xml version="1.0" encoding="utf-8"?>
<!-- Generator: Adobe Illustrator 19.2.1, SVG Export Plug-In . SVG Version: 6.00 Build 0)  -->
<svg version="1.1" id="Layer_1" xmlns="http://www.w3.org/2000/svg" xmlns:xlink="http://www.w3.org/1999/xlink" x="0px" y="0px"
	 viewBox="0 0 136.8 71.1" style="enable-background:new 0 0 136.8 71.1;" xml:space="preserve">
<style type="text/css">
	.st0{fill:#009FE3;}
</style>
<g>
	<path class="st0" d="M0,57.2v-27c0-1,0.3-1.9,1-2.6s1.6-1.1,2.7-1.1H16c1,0,1.8,0.3,2.4,1c0.6,0.7,0.8,1.4,0.8,2.3
		s-0.3,1.7-0.9,2.3c-0.6,0.7-1.4,1-2.4,1H7.2v7h7.5c1.1,0,2,0.3,2.6,1s0.9,1.4,0.9,2.3s-0.3,1.7-0.9,2.4s-1.4,1-2.5,1H7.2v10.5
		c0,1.2-0.3,2.1-1,2.8s-1.5,1-2.6,1c-1,0-1.9-0.3-2.6-1S0,58.4,0,57.2z"/>
	<path class="st0" d="M24.9,24.5c0.7,0,1.3,0.2,1.9,0.5s1.1,0.8,1.4,1.4s0.5,1.2,0.5,1.8c0,1.1-0.4,2-1.1,2.8s-1.7,1.2-2.8,1.2
		c-1,0-1.9-0.4-2.7-1.2s-1.2-1.7-1.2-2.8c0-1,0.4-1.9,1.2-2.6S23.9,24.5,24.9,24.5z M21.5,57.1V38.7c0-1.1,0.3-2.1,0.9-2.8
		s1.5-1.1,2.5-1.1c0.7,0,1.3,0.2,1.8,0.5s0.9,0.8,1.2,1.4s0.4,1.3,0.4,2v18.4c0,0.8-0.1,1.4-0.4,2s-0.7,1-1.2,1.4s-1.1,0.5-1.8,0.5
		c-1,0-1.9-0.4-2.5-1.1S21.5,58.2,21.5,57.1z"/>
	<path class="st0" d="M31.9,56.4l10.9-15.3h-8c-0.9,0-1.6-0.3-2.2-0.8c-0.6-0.6-0.9-1.3-0.9-2.2s0.3-1.6,0.9-2.2s1.3-0.8,2.2-0.8
		h15.7c0.5,0,1,0.2,1.5,0.5s0.8,0.9,0.8,1.7c0,0.5-0.1,0.8-0.2,1.1s-0.3,0.6-0.6,1L41.1,54.6h9.1c0.9,0,1.7,0.3,2.3,0.8
		s0.9,1.3,0.9,2.2s-0.3,1.7-0.9,2.2s-1.3,0.8-2.3,0.8H34.1c-0.8,0-1.5-0.2-2-0.6s-0.8-1-0.8-1.7C31.3,57.7,31.5,57.1,31.9,56.4z"/>
	<path class="st0" d="M55.5,56.4l10.9-15.3h-8c-0.9,0-1.6-0.3-2.2-0.8c-0.6-0.6-0.9-1.3-0.9-2.2s0.3-1.6,0.9-2.2s1.3-0.8,2.2-0.8H74
		c0.5,0,1,0.2,1.5,0.5s0.8,0.9,0.8,1.7c0,0.5-0.1,0.8-0.2,1.1s-0.3,0.6-0.6,1L64.7,54.6h9.1c0.9,0,1.7,0.3,2.3,0.8s0.9,1.3,0.9,2.2
		s-0.3,1.7-0.9,2.2s-1.3,0.8-2.3,0.8H57.7c-0.8,0-1.5-0.2-2-0.6s-0.8-1-0.8-1.7C54.9,57.7,55.1,57.1,55.5,56.4z"/>
	<path class="st0" d="M85.8,58.6l-7.6-19.1c-0.2-0.6-0.3-1.2-0.3-1.8c0-0.8,0.3-1.5,1-2.1s1.4-0.9,2.2-0.9c0.8,0,1.5,0.2,2.1,0.6
		s1,1,1.3,1.8l4.7,13l5.1-13c0.3-0.8,0.8-1.4,1.3-1.8s1.3-0.6,2.1-0.6c0.8,0,1.5,0.3,2.2,0.9s1,1.3,1,2.1c0,0.7-0.1,1.3-0.3,1.8
		L89.2,68.4c-0.7,1.8-1.8,2.7-3.3,2.7c-1.1,0-2-0.3-2.6-0.9s-1-1.3-1-2.1c0-0.5,0.1-1.2,0.4-2L85.8,58.6z"/>
	<path class="st0" d="M136.5,43.6c0-2.4,0-6.3,0-6.3s-0.3-0.6-0.7,0v0.6l-9.8,0.9h-2.9c-2.4-2.4-5.7-3.8-9.4-3.8
		c-7.4,0-13.3,6-13.3,13.3c0,7.4,6,13.3,13.3,13.3c7,0,12.8-5.4,13.3-12.3l9,0.7l0,0.5c0.3,0.4,0.7,0,0.7,0S136.5,46,136.5,43.6z"/>
</g>
<circle class="st0" cx="106.3" cy="25.7" r="6"/>
<circle class="st0" cx="115.4" cy="13.6" r="4.3"/>
<circle class="st0" cx="103.1" cy="3.5" r="3.5"/>
</svg>
